<svg width="179" height="35" viewBox="0 0 179 35" fill="none" xmlns="http://www.w3.org/2000/svg">
<path opacity="0.9" d="M6.776 16.008H13.112C16.952 16.008 18.536 14.04 18.536 11.256C18.536 8.616 16.952 6.648 13.112 6.648H6.776V16.008ZM6.776 33H0.104V1.128H14.168C20.408 1.128 24.392 5.688 24.392 11.448C24.392 17.256 20.408 21.432 14.168 21.432H6.776V33ZM43.2522 20.952L39.2682 8.28H39.2203L35.1402 20.952H43.2522ZM54.4363 33H47.1883L45.1723 26.424H33.4122L31.1562 33H24.1002L35.4762 1.128H43.2043L54.4363 33ZM70.0966 33H63.4246V20.952L52.3846 1.128H60.1606L66.8806 14.088L73.0726 1.128H80.7526L70.0966 21.048V33ZM102.38 33H95.7076V6.696H86.1076V1.128H112.028V6.696H102.38V33ZM131.826 28.392C136.626 28.392 140.466 25.032 140.466 17.496C140.466 9.96 137.394 5.976 131.826 5.976C126.21 5.976 123.09 9.96 123.09 17.496C123.09 25.032 126.306 28.392 131.826 28.392ZM131.826 34.104C122.034 34.104 116.514 28.104 116.514 17.352C116.514 6.552 122.034 0.0719976 131.826 0.0719976C141.618 0.0719976 147.042 6.552 147.042 17.496C147.042 28.44 141.618 34.104 131.826 34.104ZM177.91 10.536H171.574C171.238 7.272 169.27 5.688 165.238 5.688C161.494 5.688 159.526 7.032 159.526 9.432C159.526 11.448 160.918 12.6 164.47 13.464C168.07 14.328 171.574 15.192 173.926 16.248C176.71 17.496 178.918 19.464 178.918 23.976C178.918 30.984 173.638 34.104 166.198 34.104C158.326 34.104 152.854 30.6 152.71 23.448H159.142C159.238 26.712 161.974 28.728 166.246 28.728C170.182 28.728 172.438 27.048 172.438 24.216C172.438 22.344 171.478 21.048 167.494 20.184C163.558 19.32 161.014 18.744 158.758 17.736C155.35 16.2 153.43 13.896 153.43 9.864C153.43 4.152 157.318 0.0719976 165.094 0.0719976C173.158 0.0719976 177.67 4.44 177.91 10.536Z" fill="url(#paint0_linear_18_1270)"/>
<defs>
<linearGradient id="paint0_linear_18_1270" x1="199.161" y1="15.2522" x2="-18.0977" y2="15.2522" gradientUnits="userSpaceOnUse">
<stop stop-color="#F8C265"/>
<stop offset="0.5" stop-color="#80CBCB"/>
<stop offset="1" stop-color="#F8C265"/>
</linearGradient>
</defs>
</svg>
